<svg xmlns="http://www.w3.org/2000/svg" xmlns:xlink="http://www.w3.org/1999/xlink" width="500" zoomAndPan="magnify" viewBox="0 0 375 374.999991" height="500" preserveAspectRatio="xMidYMid meet" version="1.0"><defs><filter x="0%" y="0%" width="100%" height="100%" id="52f2ca4f27"><feColorMatrix values="0 0 0 0 1 0 0 0 0 1 0 0 0 0 1 0 0 0 1 0" color-interpolation-filters="sRGB"/></filter><clipPath id="19a27717de"><path d="M 5.828125 142.96875 L 369.171875 142.96875 L 369.171875 209.007812 L 5.828125 209.007812 Z M 5.828125 142.96875 " clip-rule="nonzero"/></clipPath><clipPath id="760cf47e85"><path d="M 18.550781 158.039062 L 60.550781 158.039062 L 60.550781 194.039062 L 18.550781 194.039062 Z M 18.550781 158.039062 " clip-rule="nonzero"/></clipPath><mask id="b5c6785858"><g filter="url(#52f2ca4f27)"><rect x="-37.5" width="450" fill="#000000" y="-37.499999" height="449.999989" fill-opacity="0.5686"/></g></mask><clipPath id="8d1240608d"><path d="M 0.925781 1.144531 L 66 1.144531 L 66 65.007812 L 0.925781 65.007812 Z M 0.925781 1.144531 " clip-rule="nonzero"/></clipPath><clipPath id="aeda931ca2"><rect x="0" width="70" y="0" height="66"/></clipPath></defs><g clip-path="url(#19a27717de)"><path fill="#00cdcd" d="M 5.828125 142.96875 L 370.964844 142.96875 L 370.964844 209.714844 L 5.828125 209.714844 Z M 5.828125 142.96875 " fill-opacity="1" fill-rule="nonzero"/></g><g clip-path="url(#760cf47e85)"><path fill="#000000" d="M 56.589844 158.054688 L 22.507812 158.054688 C 20.324219 158.054688 18.550781 159.847656 18.550781 162.046875 L 18.550781 190.035156 C 18.550781 192.234375 20.324219 194.027344 22.507812 194.027344 L 56.589844 194.027344 C 58.773438 194.027344 60.550781 192.234375 60.550781 190.035156 L 60.550781 162.046875 C 60.550781 159.847656 58.773438 158.054688 56.589844 158.054688 Z M 21.769531 162.046875 C 21.769531 161.640625 22.105469 161.300781 22.507812 161.300781 L 56.589844 161.300781 C 56.992188 161.300781 57.328125 161.640625 57.328125 162.046875 L 57.328125 162.5625 L 39.929688 180.109375 C 39.722656 180.316406 39.375 180.316406 39.167969 180.109375 L 21.769531 162.5625 Z M 57.328125 190.039062 C 57.328125 190.445312 56.992188 190.785156 56.589844 190.785156 L 22.507812 190.785156 C 22.105469 190.785156 21.769531 190.445312 21.769531 190.039062 L 21.769531 167.152344 L 36.890625 182.398438 C 37.597656 183.113281 38.539062 183.507812 39.542969 183.507812 C 40.550781 183.507812 41.492188 183.117188 42.199219 182.398438 L 57.320312 167.152344 L 57.320312 190.039062 Z M 57.328125 190.039062 " fill-opacity="1" fill-rule="nonzero"/></g><g mask="url(#b5c6785858)"><g transform="matrix(1, 0, 0, 1, 6, 144)"><g clip-path="url(#aeda931ca2)"><g clip-path="url(#8d1240608d)"><path fill="#00cdcd" d="M 0.925781 1.144531 L 65.472656 1.144531 L 65.472656 65.691406 L 0.925781 65.691406 Z M 0.925781 1.144531 " fill-opacity="1" fill-rule="nonzero"/></g></g></g></g></svg>