<svg xmlns="http://www.w3.org/2000/svg" xmlns:xlink="http://www.w3.org/1999/xlink" width="500" zoomAndPan="magnify" viewBox="0 0 375 374.999991" height="500" preserveAspectRatio="xMidYMid meet" version="1.0"><defs><clipPath id="e0fef0b4dd"><path d="M 127.269531 108.109375 L 247.730469 108.109375 L 247.730469 228.570312 L 127.269531 228.570312 Z M 127.269531 108.109375 " clip-rule="nonzero"/></clipPath><clipPath id="c2dd41cc11"><path d="M 187.5 108.109375 C 154.234375 108.109375 127.269531 135.074219 127.269531 168.339844 C 127.269531 201.605469 154.234375 228.570312 187.5 228.570312 C 220.765625 228.570312 247.730469 201.605469 247.730469 168.339844 C 247.730469 135.074219 220.765625 108.109375 187.5 108.109375 " clip-rule="nonzero"/></clipPath><clipPath id="bca981ce9b"><path d="M 153.601562 134.441406 L 221.101562 134.441406 L 221.101562 201.941406 L 153.601562 201.941406 Z M 153.601562 134.441406 " clip-rule="nonzero"/></clipPath></defs><g clip-path="url(#e0fef0b4dd)"><g clip-path="url(#c2dd41cc11)"><path fill="#0017e4" d="M 127.269531 108.109375 L 247.730469 108.109375 L 247.730469 228.570312 L 127.269531 228.570312 Z M 127.269531 108.109375 " fill-opacity="1" fill-rule="nonzero"/></g></g><g clip-path="url(#bca981ce9b)"><path fill="#000000" d="M 220.007812 201.9375 C 219.421875 201.9375 218.9375 201.453125 218.9375 200.867188 L 218.9375 194.765625 C 218.9375 185.796875 211.640625 178.5 202.671875 178.5 L 172.039062 178.5 C 163.070312 178.5 155.769531 185.796875 155.769531 194.765625 L 155.769531 200.867188 C 155.769531 201.457031 155.292969 201.9375 154.699219 201.9375 C 154.109375 201.9375 153.628906 201.457031 153.628906 200.867188 L 153.628906 194.765625 C 153.628906 184.617188 161.886719 176.359375 172.039062 176.359375 L 202.671875 176.359375 C 212.820312 176.359375 221.078125 184.617188 221.078125 194.765625 L 221.078125 200.867188 C 221.078125 201.453125 220.59375 201.9375 220.007812 201.9375 Z M 206.875 153.960938 C 206.875 143.199219 198.117188 134.441406 187.355469 134.441406 C 176.589844 134.441406 167.835938 143.199219 167.835938 153.960938 C 167.835938 164.722656 176.589844 173.480469 187.355469 173.480469 C 198.117188 173.480469 206.875 164.722656 206.875 153.960938 Z M 204.730469 153.960938 C 204.730469 163.542969 196.9375 171.339844 187.355469 171.339844 C 177.773438 171.339844 169.976562 163.542969 169.976562 153.960938 C 169.976562 144.378906 177.773438 136.582031 187.355469 136.582031 C 196.9375 136.582031 204.730469 144.378906 204.730469 153.960938 Z M 204.730469 153.960938 " fill-opacity="1" fill-rule="nonzero"/></g></svg>