<svg xmlns="http://www.w3.org/2000/svg" xmlns:xlink="http://www.w3.org/1999/xlink" width="500" zoomAndPan="magnify" viewBox="0 0 375 374.999991" height="500" preserveAspectRatio="xMidYMid meet" version="1.0"><defs><filter x="0%" y="0%" width="100%" height="100%" id="f267868d52"><feColorMatrix values="0 0 0 0 1 0 0 0 0 1 0 0 0 0 1 0 0 0 1 0" color-interpolation-filters="sRGB"/></filter><clipPath id="77190f8d81"><path d="M 13.339844 46.386719 L 361 46.386719 L 361 363.953125 L 13.339844 363.953125 Z M 13.339844 46.386719 " clip-rule="nonzero"/></clipPath><clipPath id="84e5f22123"><path d="M 51.589844 46.386719 L 323.410156 46.386719 C 344.535156 46.386719 361.660156 63.511719 361.660156 84.636719 L 361.660156 325.390625 C 361.660156 346.515625 344.535156 363.640625 323.410156 363.640625 L 51.589844 363.640625 C 30.464844 363.640625 13.339844 346.515625 13.339844 325.390625 L 13.339844 84.636719 C 13.339844 63.511719 30.464844 46.386719 51.589844 46.386719 " clip-rule="nonzero"/></clipPath><clipPath id="19c34eab4f"><path d="M 49.28125 119.800781 L 326.53125 119.800781 L 326.53125 170.1875 L 49.28125 170.1875 Z M 49.28125 119.800781 " clip-rule="nonzero"/></clipPath><clipPath id="94957e0574"><path d="M 48.875 203.367188 L 326.125 203.367188 L 326.125 253.757812 L 48.875 253.757812 Z M 48.875 203.367188 " clip-rule="nonzero"/></clipPath><clipPath id="bad1c7f295"><path d="M 58.746094 129.546875 L 87.996094 129.546875 L 87.996094 158.796875 L 58.746094 158.796875 Z M 58.746094 129.546875 " clip-rule="nonzero"/></clipPath><clipPath id="43ed5a91e2"><path d="M 58.746094 215.335938 L 90.996094 215.335938 L 90.996094 243.085938 L 58.746094 243.085938 Z M 58.746094 215.335938 " clip-rule="nonzero"/></clipPath><mask id="03d240db37"><g filter="url(#f267868d52)"><rect x="-37.5" width="450" fill="#000000" y="-37.499999" height="449.999989" fill-opacity="0.5686"/></g></mask><clipPath id="2eaab357f3"><path d="M 0.878906 0.800781 L 50.832031 0.800781 L 50.832031 49.527344 L 0.878906 49.527344 Z M 0.878906 0.800781 " clip-rule="nonzero"/></clipPath><clipPath id="e48056088c"><rect x="0" width="54" y="0" height="51"/></clipPath><mask id="7e83ac63a9"><g filter="url(#f267868d52)"><rect x="-37.5" width="450" fill="#000000" y="-37.499999" height="449.999989" fill-opacity="0.5686"/></g></mask><clipPath id="90598fc648"><path d="M 0.230469 1.027344 L 50 1.027344 L 50 49.757812 L 0.230469 49.757812 Z M 0.230469 1.027344 " clip-rule="nonzero"/></clipPath><clipPath id="b1f3a6012a"><rect x="0" width="53" y="0" height="51"/></clipPath><clipPath id="31fd738285"><path d="M 141.539062 11.359375 L 233.460938 11.359375 L 233.460938 103.28125 L 141.539062 103.28125 Z M 141.539062 11.359375 " clip-rule="nonzero"/></clipPath><clipPath id="946005af16"><path d="M 187.5 11.359375 C 162.117188 11.359375 141.539062 31.9375 141.539062 57.320312 C 141.539062 82.703125 162.117188 103.28125 187.5 103.28125 C 212.882812 103.28125 233.460938 82.703125 233.460938 57.320312 C 233.460938 31.9375 212.882812 11.359375 187.5 11.359375 " clip-rule="nonzero"/></clipPath><clipPath id="0c117e7da8"><path d="M 161.632812 31.453125 L 213.382812 31.453125 L 213.382812 83.203125 L 161.632812 83.203125 Z M 161.632812 31.453125 " clip-rule="nonzero"/></clipPath></defs><g clip-path="url(#77190f8d81)"><g clip-path="url(#84e5f22123)"><path fill="#000000" d="M 13.339844 46.386719 L 360.867188 46.386719 L 360.867188 363.953125 L 13.339844 363.953125 Z M 13.339844 46.386719 " fill-opacity="1" fill-rule="nonzero"/></g></g><g clip-path="url(#19c34eab4f)"><path fill="#00cdcd" d="M 49.28125 119.800781 L 327.898438 119.800781 L 327.898438 170.730469 L 49.28125 170.730469 Z M 49.28125 119.800781 " fill-opacity="1" fill-rule="nonzero"/></g><g clip-path="url(#94957e0574)"><path fill="#00cdcd" d="M 48.875 203.367188 L 327.496094 203.367188 L 327.496094 254.296875 L 48.875 254.296875 Z M 48.875 203.367188 " fill-opacity="1" fill-rule="nonzero"/></g><g clip-path="url(#bad1c7f295)"><path fill="#000000" d="M 87.523438 158.792969 L 59.222656 158.792969 C 58.964844 158.792969 58.757812 158.585938 58.757812 158.328125 L 58.757812 155.6875 C 58.757812 151.289062 62.335938 147.710938 66.734375 147.710938 L 80.007812 147.710938 C 84.40625 147.710938 87.984375 151.289062 87.984375 155.6875 L 87.984375 158.328125 C 87.984375 158.585938 87.777344 158.792969 87.523438 158.792969 Z M 73.371094 146.460938 C 68.707031 146.460938 64.914062 142.667969 64.914062 138.003906 C 64.914062 133.339844 68.707031 129.546875 73.371094 129.546875 C 78.035156 129.546875 81.832031 133.339844 81.832031 138.003906 C 81.832031 142.667969 78.035156 146.460938 73.371094 146.460938 Z M 73.371094 146.460938 " fill-opacity="1" fill-rule="nonzero"/></g><g clip-path="url(#43ed5a91e2)"><path fill="#000000" d="M 87.957031 215.347656 L 61.785156 215.347656 C 60.109375 215.347656 58.746094 216.726562 58.746094 218.421875 L 58.746094 239.996094 C 58.746094 241.691406 60.109375 243.074219 61.785156 243.074219 L 87.957031 243.074219 C 89.632812 243.074219 90.996094 241.691406 90.996094 239.996094 L 90.996094 218.421875 C 90.996094 216.726562 89.632812 215.347656 87.957031 215.347656 Z M 61.21875 218.421875 C 61.21875 218.109375 61.476562 217.851562 61.785156 217.851562 L 87.957031 217.851562 C 88.265625 217.851562 88.523438 218.109375 88.523438 218.421875 L 88.523438 218.820312 L 75.164062 232.34375 C 75.003906 232.503906 74.738281 232.503906 74.578125 232.34375 L 61.21875 218.820312 Z M 88.523438 240 C 88.523438 240.3125 88.265625 240.574219 87.957031 240.574219 L 61.785156 240.574219 C 61.476562 240.574219 61.21875 240.3125 61.21875 240 L 61.21875 222.359375 L 72.828125 234.109375 C 73.371094 234.660156 74.097656 234.964844 74.867188 234.964844 C 75.640625 234.964844 76.363281 234.664062 76.90625 234.109375 L 88.515625 222.359375 L 88.515625 240 Z M 88.523438 240 " fill-opacity="1" fill-rule="nonzero"/></g><g mask="url(#03d240db37)"><g transform="matrix(1, 0, 0, 1, 49, 119)"><g clip-path="url(#e48056088c)"><g clip-path="url(#2eaab357f3)"><path fill="#00cdcd" d="M 0.878906 0.800781 L 50.128906 0.800781 L 50.128906 50.050781 L 0.878906 50.050781 Z M 0.878906 0.800781 " fill-opacity="1" fill-rule="nonzero"/></g></g></g></g><g mask="url(#7e83ac63a9)"><g transform="matrix(1, 0, 0, 1, 48, 204)"><g clip-path="url(#b1f3a6012a)"><g clip-path="url(#90598fc648)"><path fill="#00cdcd" d="M 0.230469 1.027344 L 49.480469 1.027344 L 49.480469 50.28125 L 0.230469 50.28125 Z M 0.230469 1.027344 " fill-opacity="1" fill-rule="nonzero"/></g></g></g></g><g clip-path="url(#31fd738285)"><g clip-path="url(#946005af16)"><path fill="#0017e4" d="M 141.539062 11.359375 L 233.460938 11.359375 L 233.460938 103.28125 L 141.539062 103.28125 Z M 141.539062 11.359375 " fill-opacity="1" fill-rule="nonzero"/></g></g><g clip-path="url(#0c117e7da8)"><path fill="#000000" d="M 212.546875 83.199219 C 212.09375 83.199219 211.722656 82.832031 211.722656 82.378906 L 211.722656 77.703125 C 211.722656 70.828125 206.128906 65.230469 199.253906 65.230469 L 175.769531 65.230469 C 168.890625 65.230469 163.296875 70.828125 163.296875 77.703125 L 163.296875 82.378906 C 163.296875 82.832031 162.929688 83.199219 162.476562 83.199219 C 162.023438 83.199219 161.65625 82.832031 161.65625 82.378906 L 161.65625 77.703125 C 161.65625 69.921875 167.988281 63.589844 175.769531 63.589844 L 199.253906 63.589844 C 207.035156 63.589844 213.367188 69.921875 213.367188 77.703125 L 213.367188 82.378906 C 213.367188 82.832031 212.996094 83.199219 212.546875 83.199219 Z M 202.476562 46.417969 C 202.476562 38.167969 195.761719 31.453125 187.511719 31.453125 C 179.257812 31.453125 172.546875 38.167969 172.546875 46.417969 C 172.546875 54.671875 179.257812 61.382812 187.511719 61.382812 C 195.761719 61.382812 202.476562 54.671875 202.476562 46.417969 Z M 200.832031 46.417969 C 200.832031 53.765625 194.855469 59.742188 187.511719 59.742188 C 180.164062 59.742188 174.1875 53.765625 174.1875 46.417969 C 174.1875 39.074219 180.164062 33.097656 187.511719 33.097656 C 194.855469 33.097656 200.832031 39.074219 200.832031 46.417969 Z M 200.832031 46.417969 " fill-opacity="1" fill-rule="nonzero"/></g></svg>