<svg xmlns="http://www.w3.org/2000/svg" xmlns:xlink="http://www.w3.org/1999/xlink" width="500" zoomAndPan="magnify" viewBox="0 0 375 374.999991" height="500" preserveAspectRatio="xMidYMid meet" version="1.0"><defs><clipPath id="6bd863b59b"><path d="M 9.007812 22.355469 L 366 22.355469 L 366 352 L 9.007812 352 Z M 9.007812 22.355469 " clip-rule="nonzero"/></clipPath><clipPath id="4a77db7b19"><path d="M 47.257812 22.355469 L 327.742188 22.355469 C 337.886719 22.355469 347.613281 26.382812 354.789062 33.558594 C 361.960938 40.730469 365.992188 50.460938 365.992188 60.605469 L 365.992188 314.394531 C 365.992188 324.539062 361.960938 334.269531 354.789062 341.441406 C 347.613281 348.617188 337.886719 352.644531 327.742188 352.644531 L 47.257812 352.644531 C 37.113281 352.644531 27.386719 348.617188 20.210938 341.441406 C 13.039062 334.269531 9.007812 324.539062 9.007812 314.394531 L 9.007812 60.605469 C 9.007812 50.460938 13.039062 40.730469 20.210938 33.558594 C 27.386719 26.382812 37.113281 22.355469 47.257812 22.355469 " clip-rule="nonzero"/></clipPath></defs><g clip-path="url(#6bd863b59b)"><g clip-path="url(#4a77db7b19)"><path fill="#000000" d="M 9.007812 22.355469 L 367.027344 22.355469 L 367.027344 351.34375 L 9.007812 351.34375 Z M 9.007812 22.355469 " fill-opacity="1" fill-rule="nonzero"/></g></g></svg>