<svg xmlns="http://www.w3.org/2000/svg" xmlns:xlink="http://www.w3.org/1999/xlink" width="500" zoomAndPan="magnify" viewBox="0 0 375 374.999991" height="500" preserveAspectRatio="xMidYMid meet" version="1.0"><defs><filter x="0%" y="0%" width="100%" height="100%" id="60ccd716a3"><feColorMatrix values="0 0 0 0 1 0 0 0 0 1 0 0 0 0 1 0 0 0 1 0" color-interpolation-filters="sRGB"/></filter><clipPath id="a1b93b5b3e"><path d="M 5.828125 154.480469 L 369.171875 154.480469 L 369.171875 220.519531 L 5.828125 220.519531 Z M 5.828125 154.480469 " clip-rule="nonzero"/></clipPath><clipPath id="aea6ab361b"><path d="M 18.550781 168.550781 L 56.800781 168.550781 L 56.800781 206.800781 L 18.550781 206.800781 Z M 18.550781 168.550781 " clip-rule="nonzero"/></clipPath><mask id="bb072c08ac"><g filter="url(#60ccd716a3)"><rect x="-37.5" width="450" fill="#000000" y="-37.499999" height="449.999989" fill-opacity="0.5686"/></g></mask><clipPath id="09db84dbe3"><path d="M 0.828125 0.65625 L 66 0.65625 L 66 64.519531 L 0.828125 64.519531 Z M 0.828125 0.65625 " clip-rule="nonzero"/></clipPath><clipPath id="1d08b6ad35"><rect x="0" width="70" y="0" height="66"/></clipPath></defs><g clip-path="url(#a1b93b5b3e)"><path fill="#00cdcd" d="M 5.828125 154.480469 L 370.964844 154.480469 L 370.964844 221.226562 L 5.828125 221.226562 Z M 5.828125 154.480469 " fill-opacity="1" fill-rule="nonzero"/></g><g clip-path="url(#aea6ab361b)"><path fill="#000000" d="M 56.179688 206.796875 L 19.171875 206.796875 C 18.835938 206.796875 18.566406 206.523438 18.566406 206.191406 L 18.566406 202.734375 C 18.566406 196.980469 23.246094 192.300781 28.996094 192.300781 L 46.355469 192.300781 C 52.105469 192.300781 56.785156 196.980469 56.785156 202.734375 L 56.785156 206.191406 C 56.785156 206.523438 56.515625 206.796875 56.179688 206.796875 Z M 37.675781 190.671875 C 31.578125 190.671875 26.613281 185.707031 26.613281 179.609375 C 26.613281 173.511719 31.578125 168.550781 37.675781 168.550781 C 43.773438 168.550781 48.734375 173.511719 48.734375 179.609375 C 48.734375 185.707031 43.773438 190.671875 37.675781 190.671875 Z M 37.675781 190.671875 " fill-opacity="1" fill-rule="nonzero"/></g><g mask="url(#bb072c08ac)"><g transform="matrix(1, 0, 0, 1, 5, 156)"><g clip-path="url(#1d08b6ad35)"><g clip-path="url(#09db84dbe3)"><path fill="#00cdcd" d="M 0.828125 0.65625 L 65.375 0.65625 L 65.375 65.203125 L 0.828125 65.203125 Z M 0.828125 0.65625 " fill-opacity="1" fill-rule="nonzero"/></g></g></g></g></svg>